<?xml version="1.0" standalone="no"?>
<!DOCTYPE svg PUBLIC "-//W3C//DTD SVG 20010904//EN"
 "http://www.w3.org/TR/2001/REC-SVG-20010904/DTD/svg10.dtd">
<svg version="1.0" xmlns="http://www.w3.org/2000/svg"
 width="1080.000000pt" height="500.000000pt" viewBox="0 0 1080.000000 500.000000"
 preserveAspectRatio="xMidYMid meet">

<g transform="translate(0.000000,500.000000) scale(0.100000,-0.100000)"
fill="#000000" stroke="none">
<path d="M0 3684 c0 -888 3 -1313 10 -1309 6 4 8 11 5 16 -4 5 1 9 9 9 10 0
13 6 10 15 -4 8 -1 15 6 15 7 0 9 8 4 23 -3 12 -3 19 1 15 15 -14 46 12 40 33
-4 13 -2 19 9 19 13 0 13 4 0 36 -19 45 -9 57 19 24 16 -20 19 -21 13 -5 -20
49 -20 59 -2 52 10 -4 25 1 38 13 12 11 30 20 39 20 10 0 20 4 23 9 7 11 97 2
114 -12 9 -7 17 -5 27 9 8 10 15 22 15 27 0 14 20 7 20 -9 0 -13 5 -12 29 5
27 19 29 20 36 3 7 -16 8 -15 15 3 7 16 9 11 10 -20 1 -22 4 -32 7 -22 6 23
23 12 23 -16 0 -18 2 -19 10 -7 8 12 10 10 11 -10 0 -21 2 -22 8 -7 4 10 10
18 14 17 4 0 15 7 25 17 16 16 17 14 22 -28 5 -43 5 -44 19 -19 20 35 52 58
73 52 15 -3 16 -7 7 -18 -7 -8 -19 -12 -29 -9 -11 4 -20 -3 -28 -19 -13 -30
-8 -35 29 -29 31 4 37 -5 17 -26 -11 -11 -3 -12 41 -6 39 5 52 4 46 -4 -3 -7
-15 -9 -25 -6 -14 4 -19 -1 -22 -25 -3 -22 -1 -30 11 -31 11 0 12 -2 4 -6 -22
-8 -14 -27 24 -58 20 -17 45 -38 55 -48 11 -10 33 -26 51 -36 18 -9 38 -30 45
-44 12 -24 19 -27 62 -27 57 0 79 -18 110 -87 10 -23 28 -52 39 -65 12 -12 21
-31 21 -41 0 -11 12 -36 27 -56 22 -29 29 -51 34 -112 6 -71 16 -100 76 -226
10 -21 13 -44 9 -67 -4 -20 -9 -53 -12 -74 -9 -75 -36 -143 -101 -259 -36 -65
-72 -122 -80 -126 -7 -4 -13 -14 -13 -22 0 -8 -11 -17 -25 -21 -16 -4 -25 -13
-25 -26 0 -12 -6 -19 -17 -17 -64 6 -77 -10 -49 -60 11 -19 14 -21 19 -7 8 21
63 22 71 1 9 -25 35 -17 42 13 10 47 34 88 62 108 12 8 19 21 16 28 -10 26 14
26 40 0 14 -15 28 -43 31 -63 16 -99 38 -213 51 -271 53 -226 45 -417 -27
-625 -12 -33 -24 -74 -29 -91 -4 -18 -15 -42 -24 -55 -9 -13 -16 -27 -16 -31
0 -5 44 -8 98 -7 53 0 91 3 85 6 -18 7 -16 30 3 37 8 3 12 2 9 -4 -3 -6 -1
-10 4 -10 6 0 11 4 11 9 0 12 135 76 180 86 8 2 35 8 59 13 24 6 50 8 57 5 8
-3 14 -1 14 5 0 6 13 8 30 6 17 -3 30 -1 30 3 0 14 56 43 83 43 49 0 161 -57
234 -120 40 -34 73 -66 73 -71 0 -5 50 -9 110 -9 l110 0 0 2500 0 2500 -1205
0 -1205 0 0 -1316z m1149 -914 c2 -14 -2 -54 -8 -90 -7 -36 -13 -75 -14 -87
-2 -11 -8 -27 -14 -35 -5 -7 -13 -25 -17 -40 -6 -25 -2 -29 30 -43 19 -8 33
-19 29 -25 -7 -11 13 -88 28 -108 7 -8 7 -16 0 -23 -6 -6 -19 4 -36 30 -15 22
-27 44 -27 48 0 5 -27 35 -60 67 -33 32 -60 67 -60 77 0 10 -14 41 -30 70 -17
28 -30 52 -28 53 2 0 12 7 23 14 11 6 30 16 43 22 12 5 22 14 22 19 0 5 17 26
38 46 43 41 75 43 81 5z m-559 -84 c0 -3 -4 -8 -10 -11 -5 -3 -10 -1 -10 4 0
6 5 11 10 11 6 0 10 -2 10 -4z m-556 -102 c10 -25 -1 -29 -14 -5 -6 12 -7 21
-1 21 5 0 12 -7 15 -16z m876 -64 c0 -5 -5 -10 -11 -10 -5 0 -7 5 -4 10 3 6 8
10 11 10 2 0 4 -4 4 -10z m25 -20 c-3 -5 -11 -10 -16 -10 -6 0 -7 5 -4 10 3 6
11 10 16 10 6 0 7 -4 4 -10z m33 -32 c16 -16 15 -28 -2 -28 -17 0 -38 24 -29
33 9 10 17 9 31 -5z"/>
<path d="M2420 2500 l0 -2500 430 0 c280 0 430 3 430 10 0 6 -5 10 -11 10 -6
0 -8 7 -5 16 4 12 2 15 -9 10 -8 -3 -15 -1 -15 4 0 6 -7 10 -16 10 -13 0 -14
3 -4 15 7 8 16 13 20 10 4 -3 13 2 20 10 7 8 16 13 20 10 4 -3 8 5 8 18 1 12
3 38 6 57 3 19 3 27 0 18 -3 -10 -10 -18 -15 -18 -12 0 -11 7 1 31 11 20 -3
28 -15 8 -4 -6 -13 -8 -20 -5 -8 3 -16 0 -19 -7 -5 -9 -7 -9 -12 1 -3 6 -15
12 -25 12 -11 0 -18 -4 -14 -9 3 -5 1 -12 -5 -16 -5 -3 -10 1 -10 9 0 8 4 17
9 21 10 6 95 18 121 17 30 -1 70 10 70 19 0 5 -7 9 -15 9 -8 0 -15 5 -15 10 0
6 -7 10 -15 10 -8 0 -15 5 -15 12 0 6 -3 8 -6 5 -4 -4 -14 1 -23 11 -22 24
-42 26 -34 4 6 -15 5 -16 -12 -2 -17 14 -18 13 -12 -3 6 -15 4 -16 -14 -7 -21
12 -40 49 -32 64 3 4 -7 18 -23 31 -25 20 -27 25 -15 39 7 9 10 16 6 16 -4 0
-2 7 5 15 8 9 8 15 2 15 -6 0 -13 13 -17 30 -4 16 -10 30 -13 30 -13 0 -34 61
-29 80 3 11 1 18 -3 15 -11 -7 -32 30 -23 39 3 3 1 6 -6 6 -9 0 -9 3 1 14 39
40 58 68 53 76 -4 6 0 10 7 11 100 5 125 7 133 10 14 4 87 -32 101 -49 11 -15
49 -19 201 -24 52 -1 94 -7 95 -13 2 -6 21 -4 51 6 45 15 47 17 32 33 -14 13
-14 16 -1 16 8 0 16 8 19 18 4 21 -58 82 -85 82 -10 0 -18 5 -18 10 0 6 -8 10
-18 10 -10 0 -34 9 -55 19 -24 12 -37 15 -38 7 -1 -6 -4 0 -8 14 -5 19 -2 29
13 41 23 19 42 14 105 -25 30 -19 42 -22 49 -13 17 21 16 41 -4 74 -25 42 -42
48 -68 25 -12 -11 -29 -19 -39 -19 -15 0 -15 3 5 24 l21 23 -26 0 c-27 0 -32
10 -28 52 2 14 -6 16 -56 11 -32 -3 -64 -10 -71 -16 -9 -7 -11 -6 -7 5 5 12
-4 17 -34 22 -27 4 -41 11 -41 21 0 9 -9 15 -24 15 -20 0 -24 6 -30 41 -4 22
-4 44 -1 50 4 5 -11 9 -34 9 -42 0 -91 17 -91 32 0 4 -8 8 -18 8 -10 0 -24 8
-32 18 -17 19 -54 92 -70 134 -5 16 -14 28 -20 28 -5 0 -10 7 -10 15 0 7 -7
18 -15 23 -16 8 -22 35 -32 127 -4 41 0 60 21 101 20 39 26 65 25 110 -1 35 5
74 15 96 9 21 16 49 16 63 0 62 48 110 113 111 54 2 77 16 77 49 0 12 7 28 15
35 8 7 15 18 15 25 0 6 11 17 24 23 32 14 58 54 62 94 2 18 9 35 16 39 6 4 11
21 11 37 0 25 5 31 29 36 25 5 28 8 18 26 -9 16 -8 20 5 20 19 0 19 4 0 39
-19 38 -8 47 24 19 l25 -23 -16 26 c-17 27 -9 57 11 45 6 -4 11 -3 11 1 0 10
36 33 64 40 33 8 109 3 123 -9 15 -12 43 6 43 28 0 17 17 18 23 2 4 -10 8 -9
16 2 6 8 11 11 11 6 0 -5 6 -3 14 3 11 10 17 8 25 -6 10 -17 10 -17 11 0 0 10
5 15 10 12 6 -3 10 -17 10 -31 0 -14 4 -22 10 -19 6 4 10 -6 11 -22 0 -15 3
-22 6 -15 8 21 25 13 18 -9 -5 -15 -4 -19 4 -15 6 4 11 16 11 27 0 10 3 18 8
18 19 -3 22 3 11 22 -8 15 -8 24 0 32 8 8 11 3 11 -17 0 -15 4 -25 10 -21 11
7 11 6 15 -40 1 -16 3 -32 4 -35 0 -3 10 9 20 26 23 38 38 49 68 49 21 1 21 0
6 -17 -9 -10 -23 -16 -32 -13 -16 6 -31 -11 -31 -37 0 -13 7 -15 31 -11 29 4
31 2 26 -17 -5 -21 -3 -22 40 -15 32 5 43 3 38 -4 -3 -7 -14 -10 -22 -9 -11 2
-16 -5 -17 -25 -1 -18 3 -27 14 -27 13 0 13 -2 0 -10 -12 -7 -12 -12 0 -34 7
-14 21 -28 31 -31 9 -3 32 -21 50 -40 19 -19 39 -35 45 -35 14 0 54 -43 54
-58 0 -8 18 -12 50 -12 58 0 80 -17 112 -84 10 -22 30 -56 44 -75 13 -19 23
-39 21 -45 -2 -6 9 -28 26 -49 25 -32 31 -50 35 -110 3 -48 14 -92 32 -132 55
-119 55 -124 37 -232 -11 -58 -30 -123 -47 -158 -51 -103 -118 -219 -129 -223
-6 -2 -11 -10 -11 -18 0 -7 -13 -20 -30 -29 -16 -9 -30 -22 -30 -30 0 -9 -11
-13 -30 -13 -44 1 -53 -12 -37 -51 12 -27 15 -30 26 -17 19 22 54 23 72 2 18
-22 39 -14 39 16 0 25 37 88 62 106 10 7 18 20 18 28 0 25 30 15 50 -18 11
-18 20 -45 20 -59 0 -29 17 -114 55 -279 36 -156 38 -351 4 -469 -10 -36 -19
-75 -19 -87 0 -11 -8 -38 -19 -60 -10 -21 -22 -55 -26 -74 -4 -19 -16 -46 -26
-59 -11 -13 -19 -28 -19 -32 0 -5 42 -9 94 -9 87 0 94 1 89 19 -3 10 1 22 8
26 8 5 10 4 5 -3 -4 -7 -2 -12 3 -12 6 0 11 4 11 9 0 21 228 108 278 105 17
-1 32 1 32 5 0 4 9 7 20 7 12 0 19 -5 16 -12 -3 -7 0 -15 7 -18 9 -5 9 -7 0
-12 -7 -3 -13 -11 -13 -18 0 -7 -11 -23 -24 -35 -14 -13 -22 -29 -20 -36 3 -7
-3 -15 -13 -18 -10 -3 32 -5 92 -6 78 0 105 3 93 10 -25 14 -3 62 25 53 12 -4
17 -2 13 4 -3 6 -1 12 5 14 15 5 -7 58 -25 58 -8 0 -22 3 -31 7 -15 5 -16 3
-5 -16 6 -13 10 -24 8 -26 -6 -6 -98 29 -98 37 0 16 46 48 78 54 55 11 157
-36 245 -111 42 -35 78 -69 82 -75 4 -6 50 -10 115 -10 l110 0 3 512 2 513 3
-512 2 -513 426 0 425 0 -6 23 c-9 27 -25 46 -25 29 0 -10 -3 -10 -14 0 -15
14 -10 42 6 32 15 -9 29 18 17 33 -6 7 -8 17 -4 23 3 5 -1 10 -9 10 -9 0 -16
7 -16 15 0 32 30 14 40 -24 8 -30 15 -39 30 -38 11 1 20 8 20 15 0 8 -6 12
-15 8 -11 -4 -15 1 -15 19 0 16 6 25 15 25 8 0 15 -7 15 -16 0 -11 5 -14 16
-10 13 5 15 2 11 -14 -6 -23 8 -27 17 -4 3 8 10 13 14 10 5 -3 6 9 4 26 -3 21
-1 29 7 24 6 -4 11 -2 11 3 0 16 -20 13 -26 -3 -3 -8 -12 -17 -20 -20 -11 -4
-12 -2 -4 13 7 14 6 20 -6 25 -8 3 -17 -1 -20 -9 -6 -15 -25 -21 -22 -8 0 5
-2 16 -7 26 -5 13 -11 15 -21 6 -7 -6 -18 -8 -25 -4 -6 4 -15 2 -19 -5 -7 -11
-12 -10 -25 3 -9 10 -15 18 -13 18 6 3 44 7 101 12 32 2 60 7 63 10 12 12 -47
53 -68 49 -5 -1 -8 4 -8 11 0 8 -4 7 -10 -3 -8 -12 -10 -11 -10 8 0 13 -6 22
-15 22 -8 0 -12 -6 -10 -12 3 -8 -4 -14 -19 -14 -23 -2 -46 28 -46 60 0 8 -10
20 -22 28 -20 14 -21 18 -11 51 7 22 7 39 2 43 -5 3 -7 10 -4 15 4 5 1 9 -6 9
-7 0 -10 3 -7 6 4 3 -5 22 -18 42 -17 25 -23 44 -19 60 3 14 2 21 -4 18 -9 -6
-26 21 -23 36 1 5 -3 8 -8 8 -6 0 3 13 19 29 16 16 27 32 24 35 -4 3 -1 6 5 6
7 0 12 6 12 14 0 17 24 28 45 20 8 -3 19 -3 26 1 15 10 89 13 89 4 0 -4 11
-10 25 -13 14 -4 35 -16 47 -28 17 -17 36 -21 107 -25 167 -8 185 -10 189 -21
2 -7 14 -6 37 4 19 8 44 14 55 14 20 0 20 1 6 16 -15 14 -15 17 0 31 8 9 13
22 10 30 -3 8 -6 17 -6 19 0 2 -7 4 -15 4 -8 0 -15 5 -15 10 0 6 -12 16 -27
23 -16 6 -30 14 -33 17 -6 7 -89 31 -112 33 -25 2 -23 44 3 57 26 15 63 6 103
-25 35 -27 51 -22 60 15 5 19 -1 33 -24 58 -17 17 -34 32 -37 32 -4 0 -17 -9
-29 -21 -28 -27 -53 -16 -28 12 16 18 16 19 -8 19 -26 0 -47 35 -25 43 22 7
-5 27 -29 21 -43 -11 -154 6 -175 27 -10 10 -25 19 -33 19 -20 0 -26 12 -28
59 -1 40 -2 41 -37 41 -20 0 -47 7 -61 15 -14 8 -37 19 -52 25 -16 7 -35 29
-48 56 -12 24 -26 46 -30 49 -5 3 -7 12 -3 20 3 8 0 15 -6 15 -6 0 -11 7 -11
15 0 9 -7 18 -15 21 -8 4 -15 14 -15 24 0 10 -6 20 -14 23 -12 5 -20 34 -32
129 -4 28 3 51 25 96 24 47 29 68 24 96 -3 22 1 60 10 94 9 31 21 76 27 99 12
48 53 93 80 86 20 -5 99 14 101 25 1 4 3 16 4 28 3 29 40 77 76 98 16 9 30 23
30 29 1 7 3 28 5 47 1 19 7 36 13 38 6 2 13 19 17 38 3 18 9 32 13 30 3 -2 15
2 25 10 16 11 17 16 6 29 -10 12 -10 15 4 15 19 0 20 10 4 45 -16 35 -1 45 22
15 11 -14 20 -20 20 -13 0 6 -4 15 -10 18 -15 9 -12 47 2 43 7 -3 21 3 31 13
33 30 146 42 172 18 16 -16 31 -10 44 18 11 24 14 26 24 12 11 -14 14 -14 31
3 13 12 23 15 31 8 7 -6 16 -5 23 2 9 9 12 3 13 -28 0 -30 2 -34 9 -19 7 18 9
18 15 3 4 -9 4 -22 0 -28 -3 -5 -2 -10 4 -10 5 0 12 6 15 13 3 6 4 -1 1 -16
-4 -19 -2 -26 5 -22 5 3 10 15 10 25 0 12 5 17 14 14 7 -3 16 2 20 11 10 27
26 7 26 -33 1 -33 2 -35 12 -17 20 36 61 71 65 57 3 -6 9 -9 15 -6 6 4 9 1 6
-7 -3 -8 -15 -14 -27 -14 -23 -1 -41 -20 -41 -44 0 -10 8 -12 29 -8 34 7 45
-1 30 -20 -14 -16 10 -18 59 -4 25 8 32 7 29 -2 -2 -7 -14 -11 -26 -10 -17 2
-21 -3 -23 -25 -2 -43 2 -67 12 -70 6 -2 10 -10 10 -17 0 -8 8 -16 18 -19 9
-3 34 -22 55 -41 21 -19 45 -35 53 -35 8 0 24 -16 35 -35 19 -32 25 -35 69
-35 44 0 52 -4 72 -33 13 -17 30 -45 38 -62 8 -16 25 -43 37 -58 13 -16 23
-38 23 -50 0 -12 14 -38 30 -57 26 -30 30 -43 30 -91 0 -57 26 -159 41 -159 4
0 11 -15 14 -33 4 -17 12 -38 18 -45 9 -11 7 -67 -7 -172 -4 -38 -25 -95 -50
-142 -87 -160 -108 -198 -121 -208 -8 -7 -15 -18 -15 -25 0 -7 -11 -16 -25
-19 -16 -4 -25 -13 -25 -25 0 -15 -7 -19 -36 -19 -48 0 -57 -11 -41 -51 12
-28 15 -30 27 -17 17 21 60 20 76 -1 13 -17 15 -17 29 1 8 11 15 28 15 38 0
20 10 35 50 75 14 14 24 31 22 39 -3 15 16 19 33 6 17 -12 35 -51 35 -74 0
-26 19 -120 58 -283 23 -97 26 -129 25 -266 -1 -115 -5 -165 -17 -193 -8 -20
-18 -57 -21 -80 -2 -24 -14 -65 -25 -91 -11 -26 -20 -54 -20 -63 0 -9 -9 -32
-20 -50 -11 -18 -20 -37 -20 -42 0 -6 40 -10 98 -9 53 0 91 3 85 6 -7 2 -13
11 -13 20 0 10 6 12 21 8 13 -5 19 -3 15 3 -3 5 9 16 27 23 17 7 34 15 37 19
13 15 170 62 208 63 23 0 42 4 42 9 0 4 6 7 13 6 16 -4 31 -42 18 -46 -6 -2
-11 -12 -11 -22 0 -10 -11 -25 -25 -34 -14 -9 -22 -22 -19 -30 3 -8 -2 -16
-13 -19 -10 -3 32 -5 92 -6 75 0 105 3 93 9 -24 14 -1 62 26 54 12 -4 16 -2
12 5 -4 6 -2 11 3 11 15 0 14 35 -1 48 -7 5 -23 13 -36 17 -20 6 -22 4 -17
-18 l7 -25 -49 16 c-26 8 -50 16 -52 18 -1 1 8 15 21 29 60 64 184 28 317 -92
l80 -73 105 0 106 0 0 2500 0 2500 -3330 0 -3330 0 0 -2500z m3337 2378 c-2
-13 -4 -5 -4 17 -1 22 1 32 4 23 2 -10 2 -28 0 -40z m0 -215 c-2 -37 -3 -9 -3
62 0 72 1 102 3 68 2 -34 2 -93 0 -130z m0 -555 c-1 -90 -3 -17 -3 162 0 179
2 252 3 163 2 -90 2 -236 0 -325z m0 -790 c-1 -117 -2 -24 -2 207 0 231 1 327
2 213 2 -114 2 -303 0 -420z m-2550 166 c-3 -3 -12 -4 -19 -1 -8 3 -5 6 6 6
11 1 17 -2 13 -5z m3330 0 c-3 -3 -12 -4 -19 -1 -8 3 -5 6 6 6 11 1 17 -2 13
-5z m-780 -856 c-1 -90 -3 -19 -3 157 0 176 2 249 3 163 2 -86 2 -230 0 -320z
m-1272 151 c4 -11 2 -41 -4 -67 -5 -26 -13 -69 -16 -96 -4 -27 -13 -55 -21
-63 -24 -24 -17 -60 14 -75 15 -7 27 -20 28 -28 0 -8 4 -27 8 -41 4 -14 8 -33
10 -42 1 -9 5 -20 9 -23 11 -11 8 -34 -3 -34 -6 0 -14 8 -17 18 -13 35 -81
121 -136 171 -15 13 -27 32 -25 40 2 18 -36 96 -52 106 -17 11 -11 19 28 38
20 10 57 40 82 67 49 53 84 64 95 29z m3328 -29 c-3 -78 -22 -180 -38 -203
-22 -32 -18 -54 12 -69 21 -10 30 -27 45 -78 10 -36 18 -71 18 -77 0 -25 -15
-12 -39 33 -14 25 -51 71 -83 103 -41 42 -58 66 -58 85 0 14 -4 26 -10 26 -5
0 -12 11 -16 25 -3 13 -12 29 -20 36 -20 16 -17 37 5 44 11 3 48 33 83 66 78
74 104 76 101 9z m-4663 -157 c0 -7 -7 -16 -15 -19 -8 -4 -15 -12 -15 -19 0
-7 -7 -18 -15 -25 -8 -7 -12 -16 -9 -22 3 -5 -6 -21 -20 -35 -14 -14 -26 -30
-26 -34 0 -5 -3 -9 -7 -9 -5 0 -8 30 -9 67 0 38 -10 104 -22 148 -12 44 -21
84 -22 88 0 4 36 -22 80 -59 44 -37 80 -73 80 -81z m3330 5 c0 -5 -11 -24 -25
-42 -14 -18 -25 -43 -25 -55 0 -12 -4 -19 -10 -16 -5 3 -10 2 -10 -3 0 -5 -9
-19 -20 -32 -12 -14 -18 -32 -16 -46 3 -16 -1 -27 -14 -34 -29 -16 -34 6 -12
48 30 58 33 92 16 152 -8 30 -17 68 -20 84 -3 16 -10 40 -15 53 -5 13 -9 26
-9 29 0 3 36 -25 80 -62 44 -37 80 -71 80 -76z m774 77 c-4 -8 -8 -15 -10 -15
-2 0 -4 7 -4 15 0 8 4 15 10 15 5 0 7 -7 4 -15z m-3890 -91 c3 -8 2 -12 -4 -9
-6 3 -10 10 -10 16 0 14 7 11 14 -7z m893 -69 c8 -9 13 -19 10 -22 -6 -5 -37
21 -37 31 0 10 11 6 27 -9z m3323 5 c0 -5 -5 -10 -11 -10 -5 0 -7 5 -4 10 3 6
8 10 11 10 2 0 4 -4 4 -10z m20 -20 c0 -5 -5 -10 -11 -10 -5 0 -7 5 -4 10 3 6
8 10 11 10 2 0 4 -4 4 -10z m-3306 -26 c20 -8 21 -34 2 -34 -17 0 -38 24 -29
33 8 8 8 8 27 1z m3350 -20 c7 -18 -13 -18 -37 0 -13 10 -15 15 -5 19 18 6 35
-2 42 -19z m-4606 -56 c2 -16 -3 -28 -13 -32 -27 -10 -35 2 -23 35 12 35 32
34 36 -3z m2719 0 c-3 -7 -5 -2 -5 12 0 14 2 19 5 13 2 -7 2 -19 0 -25z m0
-175 c-3 -10 -5 -4 -5 12 0 17 2 24 5 18 2 -7 2 -21 0 -30z m0 -120 c-2 -21
-4 -6 -4 32 0 39 2 55 4 38 2 -18 2 -50 0 -70z m0 -95 c-3 -8 -6 -5 -6 6 -1
11 2 17 5 13 3 -3 4 -12 1 -19z m0 -60 c-3 -7 -5 -2 -5 12 0 14 2 19 5 13 2
-7 2 -19 0 -25z m0 -70 c-2 -13 -4 -5 -4 17 -1 22 1 32 4 23 2 -10 2 -28 0
-40z m0 -70 c-3 -8 -6 -5 -6 6 -1 11 2 17 5 13 3 -3 4 -12 1 -19z m0 -190 c-3
-8 -6 -5 -6 6 -1 11 2 17 5 13 3 -3 4 -12 1 -19z m0 -50 c-3 -7 -5 -2 -5 12 0
14 2 19 5 13 2 -7 2 -19 0 -25z m0 -245 c-1 -43 -3 -8 -3 77 0 85 2 120 3 78
2 -43 2 -113 0 -155z m0 -230 c-2 -16 -4 -3 -4 27 0 30 2 43 4 28 2 -16 2 -40
0 -55z m-2255 -115 c-7 -31 -30 -65 -47 -72 -22 -8 -13 64 10 80 29 21 44 17
37 -8z m3341 15 c-7 -2 -13 -15 -13 -27 0 -12 -11 -33 -25 -46 -25 -23 -25
-23 -25 -3 0 12 -5 23 -10 25 -18 6 40 58 63 57 12 0 16 -3 10 -6z m-3578
-683 c3 -5 1 -10 -4 -10 -6 0 -11 5 -11 10 0 6 2 10 4 10 3 0 8 -4 11 -10z
m3210 0 c-3 -5 1 -10 9 -10 20 0 27 -13 16 -30 -8 -13 -12 -13 -26 2 -15 15
-14 48 1 48 4 0 3 -4 0 -10z m-3314 -10 c5 0 9 -11 9 -25 0 -22 -2 -24 -19
-13 -25 15 -37 52 -14 44 8 -3 19 -6 24 -6z m-47 -45 c3 -8 1 -15 -4 -15 -6 0
-10 7 -10 15 0 8 2 15 4 15 2 0 6 -7 10 -15z m3304 -10 c-3 -3 -9 2 -12 12 -6
14 -5 15 5 6 7 -7 10 -15 7 -18z m32 4 c0 -6 -4 -7 -10 -4 -5 3 -10 11 -10 16
0 6 5 7 10 4 6 -3 10 -11 10 -16z m-3300 -30 c0 -9 -16 -13 -35 -9 -5 1 -7 -2
-3 -5 12 -12 -12 -47 -28 -41 -8 3 -25 0 -39 -6 -14 -6 -28 -8 -31 -5 -10 10
23 37 46 37 12 0 24 8 26 18 5 17 64 28 64 11z m3330 6 c0 -13 -61 -64 -72
-60 -18 7 -48 -14 -30 -22 6 -2 12 -11 12 -20 0 -8 6 -13 13 -10 6 2 11 12 11
21 -2 12 1 14 11 6 7 -6 20 -8 29 -4 9 3 16 1 16 -5 0 -6 -7 -11 -15 -11 -8 0
-28 -13 -45 -30 -28 -27 -60 -32 -60 -9 0 5 -7 9 -17 9 -9 0 -14 3 -10 6 3 4
14 3 24 -1 10 -5 23 -9 30 -11 17 -3 5 23 -14 30 -8 4 -13 13 -10 20 3 8 1 16
-6 19 -18 6 18 37 43 37 12 0 24 8 26 18 3 11 15 17 35 18 16 1 29 0 29 -1z
m40 -19 c0 -2 -7 -6 -15 -10 -8 -3 -15 -1 -15 4 0 6 7 10 15 10 8 0 15 -2 15
-4z m96 -23 c-10 -10 -19 5 -10 18 6 11 8 11 12 0 2 -7 1 -15 -2 -18z m-3466
13 c0 -3 -4 -8 -10 -11 -5 -3 -10 -1 -10 4 0 6 5 11 10 11 6 0 10 -2 10 -4z
m3330 0 c0 -3 -4 -8 -10 -11 -5 -3 -10 -1 -10 4 0 6 5 11 10 11 6 0 10 -2 10
-4z m-3211 -63 c1 -13 -3 -23 -9 -23 -5 0 -10 9 -10 19 0 10 -8 22 -17 26 -17
6 -17 7 2 21 17 13 20 13 27 -3 3 -10 7 -28 7 -40z m-55 -5 c-1 -13 -3 -28 -3
-35 -1 -7 -8 -10 -16 -6 -11 4 -19 -4 -28 -26 -11 -30 -27 -42 -27 -21 0 17
-18 11 -23 -8 -3 -11 -5 -8 -6 9 0 14 5 31 12 38 10 11 10 13 0 7 -9 -5 -13 0
-13 16 -1 23 -1 23 -25 -4 -29 -33 -35 -35 -35 -8 0 11 7 20 15 20 8 0 15 6
15 13 0 6 13 12 30 13 30 1 41 -10 18 -19 -7 -2 -10 -7 -6 -11 3 -4 16 -2 28
4 12 6 28 9 36 6 7 -3 13 -2 13 2 -3 21 2 43 9 38 5 -3 8 -15 6 -28z m3339 2
c6 -22 0 -25 -23 -10 -9 6 -11 10 -3 10 7 0 10 7 6 17 -4 10 -2 14 4 10 6 -4
13 -16 16 -27z m-3495 -2 c-3 -7 -11 -13 -18 -13 -7 0 -15 6 -17 13 -3 7 4 12
17 12 13 0 20 -5 18 -12z m3466 -14 c18 -7 22 -39 6 -49 -6 -3 -7 1 -4 9 12
30 -14 16 -30 -16 -11 -24 -16 -28 -16 -13 0 15 -3 16 -12 7 -7 -7 -16 -12
-20 -12 -15 0 -8 29 10 40 16 11 16 11 0 6 -12 -3 -18 0 -18 10 0 8 4 13 9 10
5 -4 20 -2 33 3 12 6 24 10 25 10 1 1 8 -2 17 -5z m-3495 -23 c7 -5 12 -13 10
-19 -2 -6 -14 -2 -28 9 -23 19 -9 27 18 10z m-29 -52 c0 -5 -4 -9 -8 -9 -5 0
-9 7 -9 15 0 8 4 12 9 9 4 -3 8 -9 8 -15z m3340 6 c0 -12 -19 -12 -23 0 -4 9
-1 12 9 8 7 -3 14 -7 14 -8z m-3259 -22 c-12 -20 -14 -14 -5 12 4 9 9 14 11
11 3 -2 0 -13 -6 -23z m3330 0 c-12 -20 -14 -14 -5 12 4 9 9 14 11 11 3 -2 0
-13 -6 -23z"/>
<path d="M9090 2500 l0 -2500 425 0 c234 0 425 2 425 4 0 19 -22 58 -28 49 -5
-7 -11 -6 -21 4 -11 12 -10 15 8 20 12 3 22 10 22 17 3 27 -4 51 -19 62 -12 9
-12 13 -2 19 15 9 40 -19 40 -46 0 -10 5 -21 10 -24 6 -3 10 -1 10 5 0 6 5 8
10 5 6 -3 10 -1 10 5 0 7 -7 10 -15 6 -10 -4 -15 1 -15 14 0 11 5 20 10 20 6
0 10 9 10 21 0 25 -26 54 -35 39 -4 -6 -16 -8 -27 -4 -14 4 -18 2 -14 -5 9
-15 4 -14 -30 4 -16 8 -22 15 -14 16 8 0 24 2 35 4 10 2 44 6 75 9 30 3 70 9
88 13 32 8 32 8 13 25 -16 14 -20 14 -25 2 -6 -15 -36 -20 -36 -5 0 5 -8 11
-17 14 -10 3 -33 15 -50 27 -24 16 -33 18 -33 8 0 -22 -48 -21 -55 2 -3 10
-11 18 -18 16 -7 -1 -9 -1 -4 1 14 9 7 45 -14 62 -17 14 -19 20 -9 45 7 19 7
32 0 41 -5 6 -7 15 -3 18 3 4 0 7 -7 7 -7 0 -10 3 -7 7 4 3 0 14 -8 23 -9 10
-19 35 -22 56 -3 22 -15 45 -25 52 -10 7 -16 17 -13 22 3 4 -1 11 -7 13 -8 3
-6 6 5 6 9 1 17 6 17 11 0 6 11 21 25 34 13 13 22 26 18 30 -13 12 20 25 49
19 15 -3 28 -2 28 3 0 16 73 8 118 -12 23 -10 42 -24 42 -31 0 -7 6 -14 13
-14 28 -3 108 -7 195 -10 65 -3 91 -7 88 -16 -3 -8 6 -7 29 3 19 8 44 14 56
14 21 0 22 1 4 20 -14 16 -15 20 -4 20 24 0 20 42 -7 67 -14 12 -36 26 -49 29
-14 3 -25 10 -25 14 0 4 -18 10 -39 14 -22 3 -47 13 -55 22 -9 9 -16 11 -16 4
0 -6 -4 -8 -10 -5 -18 11 -10 42 14 59 23 14 28 14 80 -14 66 -36 73 -36 81
-9 8 26 -24 91 -42 85 -6 -3 -14 0 -16 7 -3 8 -11 4 -22 -10 -9 -13 -26 -23
-37 -23 -20 0 -20 1 -5 18 22 24 21 32 -1 32 -9 0 -23 9 -30 20 -7 12 -8 20
-2 20 5 0 10 7 10 15 0 14 -42 14 -112 0 -10 -2 -18 0 -18 5 0 4 -18 10 -39
14 -21 3 -41 13 -45 21 -3 8 -15 15 -26 15 -11 0 -21 7 -21 15 -1 8 -3 20 -4
25 -1 6 -3 21 -4 35 -1 22 -6 25 -36 25 -37 0 -150 52 -138 63 3 4 1 7 -5 7
-7 0 -12 7 -12 15 0 8 -4 15 -10 15 -5 0 -10 6 -10 13 0 19 -24 67 -33 67 -5
0 -6 4 -2 9 3 5 -4 16 -16 25 -12 8 -18 19 -15 25 4 5 -1 14 -10 19 -12 7 -21
34 -29 91 -12 81 -11 82 17 136 23 44 27 62 22 95 -4 26 -1 55 9 83 8 23 20
67 26 98 14 68 48 105 90 101 42 -5 103 23 100 45 -4 25 36 87 66 103 29 16
58 67 44 76 -6 4 -6 10 0 18 6 7 8 16 4 19 -3 4 1 7 10 7 10 0 14 5 11 15 -4
8 -1 15 6 15 7 0 9 8 4 23 -3 12 -3 19 1 15 15 -14 46 12 40 33 -4 13 -2 19 9
19 13 0 13 4 0 36 -19 45 -9 57 19 24 16 -20 19 -21 13 -5 -20 49 -20 59 -2
52 10 -4 25 1 38 13 12 11 30 20 39 20 10 0 20 4 23 9 7 11 97 2 114 -12 9 -7
17 -5 27 9 8 10 15 22 15 27 0 14 20 7 20 -9 0 -13 5 -12 29 5 27 19 29 20 36
3 7 -16 8 -15 15 3 7 16 9 11 10 -20 1 -22 4 -32 7 -22 6 23 23 12 23 -16 0
-18 2 -19 10 -7 8 12 10 10 11 -10 0 -21 2 -22 8 -7 4 10 9 17 12 15 3 -2 14
6 25 16 19 20 19 19 24 -25 5 -43 5 -44 19 -19 20 35 52 58 73 52 15 -3 16 -7
7 -18 -7 -8 -19 -12 -29 -9 -11 4 -20 -3 -28 -19 -13 -30 -8 -35 29 -29 31 4
37 -5 17 -26 -11 -11 -3 -12 41 -6 39 5 52 4 46 -4 -3 -7 -15 -9 -25 -6 -14 4
-19 -1 -22 -25 -3 -22 -1 -30 11 -31 11 0 12 -2 4 -6 -7 -2 -13 -9 -13 -15 0
-10 46 -58 56 -58 2 0 4 585 4 1300 l0 1300 -855 0 -855 0 0 -2500z m777 984
c-3 -3 -12 -4 -19 -1 -8 3 -5 6 6 6 11 1 17 -2 13 -5z m-109 -829 c57 -45 69
-65 50 -80 -20 -15 -49 -65 -44 -73 3 -5 -3 -15 -12 -24 -35 -32 -50 -57 -45
-76 5 -22 -31 -50 -42 -33 -6 11 15 61 25 61 4 0 11 19 14 43 6 37 -14 142
-50 259 -4 13 3 10 24 -10 16 -15 52 -45 80 -67z m832 31 c0 -3 -4 -8 -10 -11
-5 -3 -10 -1 -10 4 0 6 5 11 10 11 6 0 10 -2 10 -4z m-556 -102 c10 -25 -1
-29 -14 -5 -6 12 -7 21 -1 21 5 0 12 -7 15 -16z m139 -1591 c-7 -2 -13 -15
-13 -27 0 -12 -11 -33 -25 -46 l-25 -23 0 33 c0 39 24 70 54 69 12 0 15 -3 9
-6z m-367 -682 c-3 -5 2 -11 12 -13 21 -6 26 -38 6 -38 -16 0 -37 37 -29 50 3
6 8 10 11 10 3 0 3 -4 0 -9z m-26 -57 c0 -8 -4 -12 -10 -9 -5 3 -10 10 -10 16
0 5 5 9 10 9 6 0 10 -7 10 -16z m30 -36 c0 -5 -7 -8 -16 -8 -8 0 -13 -4 -10
-9 7 -11 -20 -34 -42 -37 -10 -1 -27 -6 -39 -9 -24 -8 -29 1 -14 24 6 10 20
12 47 8 33 -4 35 -4 17 5 -20 9 -21 13 -8 22 17 12 65 15 65 4z m10 -22 c0 -3
-4 -8 -10 -11 -5 -3 -10 -1 -10 4 0 6 5 11 10 11 6 0 10 -2 10 -4z m62 -58 c2
-13 -3 -35 -10 -50 -15 -31 -25 -38 -15 -10 5 14 3 14 -14 -3 -11 -12 -23 -27
-26 -35 -4 -11 -6 -9 -6 4 -1 16 -4 17 -13 8 -21 -21 -27 -13 -23 28 2 22 2
40 0 40 -2 0 -17 -14 -34 -31 -30 -30 -31 -30 -55 -12 -28 21 -27 28 3 18 12
-3 18 -11 15 -17 -4 -7 -2 -8 4 -4 12 7 5 36 -9 36 -5 0 -9 7 -9 16 0 10 7 14
18 12 9 -2 16 -10 14 -17 -1 -7 3 -11 10 -8 7 2 12 12 12 21 -2 13 1 14 12 5
8 -6 21 -9 30 -5 12 5 14 1 8 -16 -5 -18 -3 -20 12 -13 11 5 30 8 43 8 18 -1
20 1 10 8 -11 7 -12 9 0 9 7 0 11 6 7 15 -3 8 -1 15 4 15 5 0 10 -10 12 -22z
m-129 -103 c-3 -9 -8 -14 -10 -11 -3 3 -2 9 2 15 9 16 15 13 8 -4z"/>
<path d="M0 2344 c0 -8 5 -12 10 -9 6 4 8 11 5 16 -9 14 -15 11 -15 -7z"/>
<path d="M684 2279 c-86 -44 -79 -86 16 -90 79 -3 83 -2 105 31 11 16 26 30
33 30 22 0 12 15 -24 33 -46 22 -80 21 -130 -4z m87 -15 c11 -14 10 -19 -10
-35 -39 -32 -115 -19 -82 14 8 8 14 8 23 -1 17 -17 28 -15 28 6 0 34 20 41 41
16z"/>
<path d="M4025 2284 c-43 -22 -65 -44 -65 -65 0 -25 9 -29 82 -31 62 -3 64 -2
104 38 l41 41 -39 16 c-48 21 -84 21 -123 1z m79 -27 c15 -23 -2 -37 -51 -44
-42 -6 -65 9 -45 29 8 8 15 8 26 -1 19 -16 36 -6 36 20 0 23 18 21 34 -4z"/>
<path d="M7352 2279 c-88 -44 -76 -88 26 -92 59 -2 62 -1 99 38 l39 40 -33 17
c-43 24 -79 23 -131 -3z m83 -13 c16 -12 17 -16 6 -30 -17 -20 -79 -32 -93
-18 -6 6 -8 18 -4 28 6 16 7 16 20 -1 15 -21 36 -12 36 16 0 23 9 24 35 5z"/>
<path d="M10684 2279 c-91 -47 -78 -87 29 -91 78 -3 89 5 85 67 -3 38 -5 40
-38 43 -21 1 -52 -6 -76 -19z m87 -15 c11 -14 10 -19 -10 -35 -39 -32 -115
-19 -82 14 8 8 14 8 23 -1 17 -17 28 -15 28 6 0 34 20 41 41 16z"/>
<path d="M73 2183 c-73 -4 -73 -4 -73 -32 0 -32 14 -41 64 -41 18 0 41 -7 52
-15 25 -19 40 -19 62 3 26 27 26 58 0 76 -12 9 -25 15 -28 14 -3 -1 -38 -4
-77 -5z"/>
<path d="M3363 2180 c-56 -3 -104 -8 -108 -11 -11 -12 106 -59 145 -59 21 0
43 -7 50 -15 18 -22 42 -18 67 12 26 30 27 32 9 55 -16 22 -40 25 -163 18z"/>
<path d="M6725 2183 c-89 -4 -135 -11 -135 -23 0 -6 7 -10 15 -10 8 0 29 -9
47 -20 18 -11 50 -20 71 -20 22 0 52 -8 68 -17 29 -17 30 -17 54 11 29 34 29
36 12 60 -15 20 -29 22 -132 19z"/>
<path d="M10035 2180 c-60 -4 -111 -8 -112 -9 -9 -4 -1 -21 10 -21 7 0 30 -9
52 -20 22 -11 55 -20 75 -20 20 0 45 -7 56 -15 25 -19 40 -19 62 3 26 27 26
58 0 76 -12 9 -25 15 -28 14 -3 -1 -54 -5 -115 -8z"/>
<path d="M363 1850 c-52 -6 -86 -35 -118 -102 -38 -78 -30 -150 22 -210 9 -10
13 -24 10 -33 -4 -9 -1 -15 8 -15 7 0 17 -4 20 -10 3 -5 0 -7 -7 -5 -8 3 -24
-5 -37 -18 -19 -21 -20 -25 -6 -31 11 -4 14 -13 9 -33 -9 -36 -9 -36 -33 -23
-13 6 -21 7 -21 1 0 -11 36 -76 55 -101 6 -8 22 -44 35 -80 64 -184 97 -215
215 -208 97 7 167 45 201 110 8 15 17 59 20 98 4 66 4 70 -16 70 -11 0 -23 -8
-27 -17 -20 -57 -45 -103 -56 -102 -7 1 -19 0 -27 -3 -8 -4 -24 -9 -35 -13
-11 -5 -41 -9 -67 -11 -39 -3 -48 0 -48 13 0 13 8 15 40 10 22 -3 43 -1 46 4
3 5 9 7 14 4 4 -3 10 2 14 10 3 8 11 15 19 15 18 0 61 46 54 57 -3 5 1 33 9
61 18 61 44 71 44 17 0 -40 15 -45 49 -17 21 17 42 110 22 97 -17 -10 -26 46
-10 57 10 7 9 8 -6 3 -50 -18 -87 -26 -93 -21 -3 3 0 6 6 6 13 0 1 47 -24 89
-17 28 -17 32 1 70 19 43 22 123 6 162 -15 35 -41 63 -83 88 -38 23 -91 25
-205 11z m46 -671 c-13 -26 -28 -32 -44 -19 -16 13 -46 96 -38 104 3 3 25 -11
49 -31 35 -29 41 -40 33 -54z m39 -52 c2 -10 -3 -17 -12 -17 -18 0 -29 16 -21
31 9 14 29 6 33 -14z"/>
<path d="M3705 1851 c-65 -8 -85 -24 -120 -95 -33 -68 -38 -139 -12 -179 9
-14 14 -35 12 -46 -2 -12 1 -21 7 -21 5 0 7 7 4 16 -3 8 -2 12 4 9 6 -3 10
-13 10 -22 0 -9 8 -22 18 -30 9 -8 11 -12 5 -8 -19 9 -59 -31 -45 -47 11 -13
5 -68 -7 -68 -4 0 -12 5 -19 12 -6 6 -15 9 -18 5 -8 -8 23 -70 49 -98 17 -18
35 -63 73 -178 16 -50 45 -86 86 -107 34 -18 121 -17 171 0 102 37 147 100
147 204 0 55 -2 62 -19 62 -15 0 -23 -13 -35 -54 -15 -50 -36 -73 -56 -61 -5
3 -11 1 -15 -5 -3 -5 -15 -10 -26 -10 -10 0 -19 -4 -19 -8 0 -11 -91 -10 -107
1 -8 5 -13 4 -13 -3 0 -6 -8 -10 -17 -8 -25 5 -23 34 2 31 83 -9 128 -5 137
10 5 10 16 17 23 17 22 0 57 39 53 58 -6 23 24 104 40 110 8 2 12 -7 12 -27 0
-37 13 -46 42 -29 13 7 26 11 31 10 4 -1 7 20 7 47 0 34 -4 51 -15 55 -19 7
-19 21 1 40 17 17 3 21 -24 7 -9 -4 -28 -11 -42 -14 -21 -5 -26 -3 -27 15 -2
28 -24 81 -37 90 -5 4 -1 26 13 57 17 41 20 62 15 104 -9 72 -28 103 -82 138
-48 31 -85 34 -207 20z m9 -617 c34 -32 37 -39 27 -60 -15 -34 -34 -30 -59 15
-22 38 -29 81 -14 81 4 0 24 -17 46 -36z"/>
<path d="M7035 1852 c-58 -4 -91 -32 -126 -109 -28 -62 -28 -120 2 -172 20
-36 21 -44 9 -51 -13 -8 -12 -10 3 -10 9 0 17 -4 17 -10 0 -5 6 -10 14 -10 8
0 18 -4 21 -10 3 -5 0 -7 -7 -5 -8 3 -25 -6 -38 -20 -13 -14 -19 -25 -14 -25
6 0 10 -16 10 -35 -1 -34 -17 -47 -31 -25 -4 6 -10 8 -15 5 -9 -5 20 -63 46
-95 7 -8 31 -64 54 -125 60 -159 86 -181 204 -172 85 5 154 40 191 95 21 31
25 49 25 109 0 65 -2 73 -19 73 -14 0 -21 -10 -26 -32 -13 -58 -34 -90 -56
-83 -11 4 -19 2 -19 -4 0 -6 -8 -11 -18 -11 -10 0 -22 -3 -26 -7 -4 -5 -41 -8
-81 -9 -53 -1 -75 2 -79 12 -8 21 5 23 68 15 48 -7 61 -5 81 11 13 10 29 18
37 18 23 0 50 41 53 79 7 83 46 122 53 52 3 -28 6 -31 25 -25 32 10 43 25 50
72 6 34 4 42 -8 42 -9 0 -15 9 -15 25 0 14 5 25 12 25 6 0 9 3 5 6 -3 4 -24
-1 -47 -10 -50 -20 -61 -20 -53 0 6 16 -26 94 -39 94 -4 0 1 23 12 50 45 114
14 212 -83 261 -37 19 -47 20 -192 11z m44 -663 c1 -21 -24 -43 -39 -34 -18
11 -52 86 -46 102 5 12 14 8 45 -18 22 -19 40 -41 40 -50z"/>
<path d="M10363 1850 c-52 -6 -86 -35 -118 -102 -38 -78 -30 -150 22 -210 9
-10 13 -24 10 -33 -4 -9 -1 -15 8 -15 7 0 17 -4 20 -10 3 -5 0 -7 -7 -5 -8 3
-24 -5 -37 -18 -19 -21 -20 -25 -6 -31 11 -4 14 -13 9 -33 -9 -36 -9 -36 -33
-23 -13 6 -21 7 -21 1 0 -11 36 -76 55 -101 6 -8 22 -44 35 -80 64 -184 97
-215 215 -208 97 7 167 45 201 110 8 15 17 59 20 98 4 66 4 70 -16 70 -11 0
-23 -8 -27 -17 -20 -57 -45 -103 -56 -102 -7 1 -19 0 -27 -3 -8 -4 -24 -9 -35
-13 -11 -5 -41 -9 -67 -11 -39 -3 -48 0 -48 13 0 13 8 15 40 10 22 -3 43 -1
46 4 3 5 9 7 14 4 4 -3 10 2 14 10 3 8 11 15 19 15 18 0 61 46 54 57 -3 5 1
33 9 61 18 61 44 71 44 17 0 -40 15 -45 49 -17 21 17 42 110 22 97 -17 -10
-26 46 -10 57 10 7 9 8 -6 3 -50 -18 -87 -26 -93 -21 -3 3 0 6 6 6 13 0 1 47
-24 89 -17 28 -17 32 1 70 19 43 22 123 6 162 -15 35 -41 63 -83 88 -38 23
-91 25 -205 11z m46 -671 c-13 -26 -28 -32 -44 -19 -16 13 -46 96 -38 104 3 3
25 -11 49 -31 35 -29 41 -40 33 -54z m39 -52 c2 -10 -3 -17 -12 -17 -18 0 -29
16 -21 31 9 14 29 6 33 -14z"/>
<path d="M902 1746 c-7 -16 -8 -26 -1 -26 12 0 22 25 17 41 -2 6 -9 0 -16 -15z"/>
<path d="M4236 1753 c-9 -9 -7 -33 3 -33 12 0 22 28 12 34 -5 3 -11 3 -15 -1z"/>
<path d="M7560 1732 c0 -10 -3 -22 -7 -26 -4 -3 -8 -12 -9 -19 -16 -76 -16
-73 0 -52 9 11 18 35 22 53 3 18 10 35 15 38 14 8 10 24 -6 24 -8 0 -15 -8
-15 -18z"/>
<path d="M880 1692 c0 -10 -3 -22 -7 -26 -8 -8 -15 -46 -8 -46 4 0 45 79 45
87 0 2 -7 3 -15 3 -8 0 -15 -8 -15 -18z"/>
<path d="M3302 1698 c-7 -7 -12 -18 -12 -26 0 -14 95 -137 125 -162 17 -14 18
-13 11 30 -4 24 -12 48 -19 52 -7 4 -8 8 -4 8 10 0 -43 100 -54 100 -4 0 -13
2 -21 5 -7 3 -19 0 -26 -7z"/>
<path d="M4213 1695 c4 -8 2 -17 -2 -20 -11 -6 -20 -55 -11 -55 6 0 19 27 24
52 0 3 4 10 9 14 12 12 8 24 -9 24 -10 0 -14 -6 -11 -15z"/>
<path d="M6633 1698 c-13 -16 -8 -29 43 -103 44 -64 81 -102 90 -93 3 3 -4 32
-16 64 -12 33 -22 64 -22 71 -2 19 -41 61 -64 67 -12 4 -26 1 -31 -6z"/>
<path d="M9973 1703 c-21 -7 -15 -42 15 -81 53 -72 98 -122 107 -122 5 0 -4
58 -13 80 -3 8 -6 17 -7 20 -26 74 -66 115 -102 103z"/>
<path d="M0 1652 c0 -33 6 -56 18 -70 10 -11 27 -32 37 -46 30 -40 45 -41 39
-3 -3 18 -8 39 -12 47 -3 8 -6 17 -7 20 -15 44 -52 100 -66 100 -5 0 -9 -22
-9 -48z"/>
<path d="M255 1520 c-3 -5 -1 -10 4 -10 6 0 11 5 11 10 0 6 -2 10 -4 10 -3 0
-8 -4 -11 -10z"/>
<path d="M10255 1520 c-3 -5 -1 -10 4 -10 6 0 11 5 11 10 0 6 -2 10 -4 10 -3
0 -8 -4 -11 -10z"/>
<path d="M795 1494 c-9 -15 -13 -30 -8 -35 5 -5 13 7 19 26 13 42 12 43 -11 9z"/>
<path d="M4136 1503 c-6 -14 -5 -15 5 -6 7 7 10 15 7 18 -3 3 -9 -2 -12 -12z"/>
<path d="M7464 1494 c-13 -19 -14 -28 -5 -37 8 -8 11 -5 11 14 0 14 5 30 12
37 7 7 9 12 5 12 -3 0 -14 -11 -23 -26z"/>
<path d="M10784 1479 c-3 -6 -1 -16 5 -22 8 -8 11 -5 11 11 0 24 -5 28 -16 11z"/>
<path d="M4116 1471 c-4 -5 -2 -12 3 -15 5 -4 12 -2 15 3 4 5 2 12 -3 15 -5 4
-12 2 -15 -3z"/>
<path d="M60 1430 c0 -17 31 -60 43 -60 6 0 22 -10 35 -22 14 -13 21 -16 17
-8 -5 8 -17 21 -27 28 -10 7 -18 20 -18 28 0 8 -4 14 -9 14 -5 0 -17 7 -25 16
-9 8 -16 10 -16 4z"/>
<path d="M3390 1430 c0 -18 31 -60 45 -60 8 0 21 -7 29 -16 9 -8 16 -10 16 -4
0 6 -7 13 -15 16 -8 4 -15 15 -15 25 0 10 -6 19 -14 19 -8 0 -22 7 -30 16 -9
8 -16 10 -16 4z"/>
<path d="M6720 1436 c0 -5 8 -21 17 -37 20 -33 43 -38 43 -9 0 11 -5 20 -12
20 -6 0 -20 7 -30 17 -10 9 -18 13 -18 9z"/>
<path d="M10060 1430 c0 -17 31 -60 43 -60 6 0 22 -10 35 -22 14 -13 21 -16
17 -8 -5 8 -17 21 -27 28 -10 7 -18 20 -18 28 0 8 -4 14 -9 14 -5 0 -17 7 -25
16 -9 8 -16 10 -16 4z"/>
<path d="M6796 1355 c3 -7 12 -16 19 -19 9 -3 12 0 9 9 -3 7 -12 16 -19 19 -9
3 -12 0 -9 -9z"/>
<path d="M165 1310 c3 -5 13 -10 21 -10 8 0 12 5 9 10 -3 6 -13 10 -21 10 -8
0 -12 -4 -9 -10z"/>
<path d="M3500 1310 c0 -5 7 -10 16 -10 8 0 12 5 9 10 -3 6 -10 10 -16 10 -5
0 -9 -4 -9 -10z"/>
<path d="M6835 1310 c3 -5 11 -10 16 -10 6 0 7 5 4 10 -3 6 -11 10 -16 10 -6
0 -7 -4 -4 -10z"/>
<path d="M10165 1310 c3 -5 13 -10 21 -10 8 0 12 5 9 10 -3 6 -13 10 -21 10
-8 0 -12 -4 -9 -10z"/>
<path d="M3 958 c1 -113 5 -210 9 -214 7 -6 147 -16 256 -18 28 -1 41 -5 38
-13 -3 -8 6 -7 29 3 19 8 44 14 56 14 21 0 22 1 4 20 -14 16 -15 20 -4 20 24
0 20 42 -7 67 -14 12 -36 26 -49 29 -14 3 -25 10 -25 14 0 4 -18 10 -39 14
-22 3 -47 13 -55 22 -9 9 -16 11 -16 4 0 -6 -5 -8 -10 -5 -18 11 -10 42 14 59
23 14 28 14 80 -14 66 -36 73 -36 81 -9 8 26 -24 91 -42 85 -6 -3 -14 0 -16 7
-3 8 -11 4 -22 -10 -9 -13 -26 -23 -37 -23 -20 0 -20 1 -5 18 22 24 21 32 -1
32 -9 0 -23 9 -30 20 -7 12 -8 20 -2 20 5 0 10 7 10 15 0 14 -42 14 -112 0
-10 -2 -18 0 -18 5 0 4 -18 10 -39 14 -22 3 -42 12 -45 18 -3 7 -4 -80 -3
-194z m170 35 c-7 -2 -13 -15 -13 -27 0 -12 -11 -33 -25 -46 l-25 -23 0 33 c0
39 24 70 54 69 12 0 15 -3 9 -6z"/>
<path d="M932 1018 c-6 -6 -31 -11 -54 -10 -24 1 -56 -5 -72 -13 -15 -8 -36
-15 -46 -15 -9 0 -24 -8 -33 -18 -14 -15 -15 -24 -6 -53 24 -76 26 -87 17
-103 -5 -9 -14 -16 -21 -16 -12 0 -13 -47 -1 -105 5 -26 1 -33 -24 -47 -27
-16 -30 -25 -37 -83 -11 -102 11 -116 99 -65 78 44 83 52 95 170 8 73 16 107
26 113 20 11 19 31 0 23 -12 -4 -15 4 -15 40 0 50 15 88 31 78 6 -4 8 -22 4
-46 -5 -30 -4 -39 5 -33 9 5 10 -11 4 -65 -5 -54 -4 -71 5 -66 15 9 31 -34 31
-84 0 -42 8 -70 20 -70 5 0 6 27 3 59 -4 41 -1 76 11 110 9 27 16 60 15 73 -1
19 -2 18 -10 -8 -5 -17 -16 -37 -24 -44 -19 -16 -19 -2 -1 41 7 19 11 49 9 67
-6 36 13 45 20 10 2 -13 2 -7 0 12 -3 19 -8 59 -12 88 -8 58 -21 78 -39 60z"/>
<path d="M4262 1018 c-6 -6 -33 -12 -59 -13 -48 -2 -99 -18 -139 -44 -17 -11
-20 -19 -13 -40 31 -103 31 -131 0 -131 -16 0 -17 -6 -10 -47 13 -79 11 -93
-15 -104 -45 -21 -57 -169 -13 -177 25 -5 86 27 127 67 36 35 38 38 45 131 6
77 11 97 27 112 19 16 17 23 -4 19 -12 -2 -9 117 3 124 19 12 22 -3 22 -109 1
-65 5 -104 11 -103 6 1 12 -8 14 -20 2 -13 8 -23 13 -23 6 0 7 -5 4 -10 -9
-15 6 -100 17 -100 6 0 7 22 3 58 -4 39 -1 72 9 107 19 60 21 107 3 58 -13
-34 -37 -65 -37 -46 0 6 7 28 16 49 9 21 13 50 10 66 -4 20 -1 30 8 34 15 6
13 50 -6 111 -11 38 -21 46 -36 31z"/>
<path d="M7591 1014 c-14 -7 -37 -10 -52 -7 -16 3 -41 -2 -60 -11 -18 -9 -40
-16 -49 -16 -9 0 -25 -9 -35 -20 -15 -16 -16 -25 -7 -43 6 -12 14 -44 17 -70
6 -44 4 -49 -15 -54 -18 -5 -20 -11 -16 -52 3 -25 8 -56 11 -67 5 -17 1 -24
-23 -35 -31 -13 -42 -43 -42 -116 0 -76 28 -81 117 -23 34 22 64 43 67 48 2 4
8 52 12 107 5 79 11 103 25 116 24 20 27 48 4 29 -13 -11 -15 -5 -15 41 0 54
13 90 26 76 5 -4 7 -26 5 -48 -1 -29 1 -39 10 -33 9 5 10 -1 5 -22 -10 -40 -8
-98 4 -102 6 -2 10 -13 10 -25 1 -19 2 -20 13 -6 10 13 12 3 12 -52 0 -41 4
-68 10 -66 6 1 9 9 7 17 -8 39 -3 111 13 163 17 59 16 82 -3 199 -14 78 -21
88 -51 72z m57 -194 c-3 -39 -11 -66 -23 -80 -25 -27 -28 -20 -10 23 8 20 15
55 15 77 0 23 5 40 11 40 8 0 10 -20 7 -60z"/>
<path d="M10769 983 c-44 -7 -61 -33 -48 -74 24 -76 26 -87 17 -103 -5 -9 -14
-16 -21 -16 -12 0 -13 -47 -1 -105 5 -26 1 -33 -24 -47 -27 -16 -30 -25 -37
-83 -10 -101 11 -115 96 -67 l49 27 0 238 c0 130 -1 236 -2 236 -2 -1 -15 -4
-29 -6z"/>
<path d="M4321 834 c0 -11 3 -14 6 -6 3 7 2 16 -1 19 -3 4 -6 -2 -5 -13z"/>
<path d="M1070 409 c0 -5 -8 -9 -17 -8 -39 3 -44 -1 -42 -38 2 -21 -3 -47 -9
-59 -15 -28 -2 -205 17 -228 6 -7 9 -22 5 -32 -5 -18 -5 -18 10 1 17 20 14 92
-5 145 -6 17 -4 39 5 70 10 29 15 37 15 22 1 -13 -4 -32 -9 -43 -6 -10 -7 -19
-2 -19 5 0 16 19 25 43 26 72 29 87 17 87 -8 0 -10 11 -6 35 4 19 4 35 1 35
-3 0 -5 -5 -5 -11z"/>
<path d="M4391 403 c-10 -10 -16 -12 -19 -5 -2 6 -10 8 -18 5 -10 -3 -14 -18
-13 -42 1 -20 -3 -47 -8 -61 -11 -32 -9 -90 7 -165 7 -33 13 -70 14 -82 0 -13
4 -23 7 -23 20 0 20 99 0 167 -5 17 -7 34 -4 37 3 3 9 20 13 38 l8 33 1 -31
c1 -16 -4 -35 -11 -42 -9 -9 -9 -12 0 -12 26 0 61 117 39 131 -6 5 -6 17 1 38
12 34 5 39 -17 14z"/>
<path d="M7723 403 c-18 -12 -23 -12 -23 -2 0 9 -3 10 -10 3 -30 -30 -31 -322
-1 -332 5 -2 7 -13 4 -25 -4 -21 -4 -21 10 2 16 27 11 110 -9 150 -8 16 -10
27 -4 29 6 2 10 25 10 50 1 39 2 44 12 28 7 -13 7 -29 0 -52 -14 -45 -5 -43
16 4 10 22 17 62 17 99 0 35 0 63 0 62 0 0 -10 -7 -22 -16z"/>
<path d="M3195 350 c3 -5 8 -10 11 -10 2 0 4 5 4 10 0 6 -5 10 -11 10 -5 0 -7
-4 -4 -10z"/>
<path d="M7050 350 c0 -5 5 -10 11 -10 5 0 7 5 4 10 -3 6 -8 10 -11 10 -2 0
-4 -4 -4 -10z"/>
<path d="M6900 337 c0 -21 -47 -61 -52 -45 -4 10 -8 10 -23 -2 -10 -8 -20 -14
-22 -12 -1 1 -3 -1 -3 -5 0 -11 68 -14 75 -4 3 6 12 8 20 5 20 -8 38 31 25 56
-12 23 -20 26 -20 7z"/>
<path d="M215 308 c-16 -17 -30 -27 -33 -20 -2 8 -10 8 -28 0 -34 -16 -30 -24
16 -25 22 -1 40 3 40 8 0 6 8 8 19 4 13 -4 20 0 24 16 3 13 3 29 -2 36 -5 10
-14 6 -36 -19z"/>
<path d="M347 321 c-4 -17 -2 -18 13 -8 10 6 16 15 14 19 -9 14 -22 9 -27 -11z"/>
<path d="M3549 311 c-20 -28 -49 -45 -34 -21 8 13 3 13 -31 0 -15 -6 -24 -13
-20 -17 11 -11 74 -14 81 -4 3 6 12 8 20 5 17 -7 32 43 17 58 -7 7 -17 0 -33
-21z"/>
<path d="M3679 318 c-12 -22 -11 -22 7 -8 10 8 20 15 22 16 2 1 -1 5 -7 8 -5
4 -15 -4 -22 -16z"/>
<path d="M7017 319 c-4 -16 -3 -18 9 -8 16 13 19 29 5 29 -5 0 -11 -9 -14 -21z"/>
<path d="M10215 308 c-16 -17 -30 -27 -33 -20 -2 8 -10 8 -28 0 -34 -16 -30
-24 16 -25 22 -1 40 3 40 8 0 6 8 8 19 4 13 -4 20 0 24 16 3 13 3 29 -2 36 -5
10 -14 6 -36 -19z"/>
<path d="M10347 321 c-4 -17 -2 -18 13 -8 10 6 16 15 14 19 -9 14 -22 9 -27
-11z"/>
<path d="M36 284 c-3 -8 -12 -14 -21 -14 -8 0 -15 -5 -15 -10 0 -7 14 -8 37
-4 47 8 46 7 23 26 -15 14 -19 14 -24 2z"/>
<path d="M580 295 c0 -6 -15 -12 -32 -13 -18 -2 -49 -7 -68 -12 -19 -5 -52 -8
-73 -7 -24 0 -42 -4 -47 -13 -8 -12 -13 -13 -30 -2 -23 14 -42 16 -20 2 13 -9
13 -10 0 -10 -8 0 -26 -3 -39 -7 -16 -4 -22 -2 -18 4 11 18 -30 3 -49 -18 -11
-13 -31 -19 -58 -19 -38 -1 -40 -2 -22 -15 17 -13 18 -15 2 -21 -9 -3 -23 -1
-31 6 -12 10 -15 10 -15 -3 0 -9 9 -19 20 -22 11 -3 20 -13 20 -21 0 -8 4 -14
10 -14 5 0 7 -6 4 -13 -3 -9 5 -13 27 -12 18 0 34 6 37 13 2 8 -2 12 -13 10
-10 -2 -20 3 -23 11 -3 8 0 11 6 7 7 -4 20 -2 31 4 13 7 22 7 26 0 3 -5 17
-10 31 -10 13 0 24 -4 24 -8 0 -5 26 -8 58 -6 31 1 57 3 57 4 0 1 13 4 30 6
47 8 43 14 -11 14 -35 0 -45 3 -34 10 8 5 26 10 39 10 16 0 21 4 17 15 -3 9 0
15 9 15 8 0 15 9 15 20 0 11 6 20 14 20 8 0 16 6 19 13 3 9 9 7 24 -5 22 -20
43 -23 43 -7 0 7 11 9 26 6 21 -4 25 -1 21 14 -4 13 0 19 11 20 14 0 14 2 2 6
-8 4 -20 13 -27 22 -7 9 -13 11 -13 6z m-100 -39 c0 -3 -4 -8 -10 -11 -5 -3
-10 -1 -10 4 0 6 5 11 10 11 6 0 10 -2 10 -4z m75 -6 c-3 -5 -12 -7 -20 -3
-21 7 -19 13 6 13 11 0 18 -4 14 -10z m-393 -92 c-8 -8 -9 -4 -5 13 4 13 8 18
11 10 2 -7 -1 -18 -6 -23z"/>
<path d="M3376 293 c-13 -13 -5 -33 14 -33 11 0 20 3 20 6 0 11 -28 33 -34 27z"/>
<path d="M3917 294 c-4 -4 -18 -9 -30 -11 -12 -1 -47 -7 -77 -13 -30 -5 -62
-9 -70 -8 -8 0 -28 0 -45 -1 -24 -1 -27 -3 -15 -12 13 -9 12 -10 -2 -5 -10 3
-26 9 -35 12 -16 5 -16 4 -3 -6 13 -10 11 -11 -7 -7 -13 3 -23 1 -23 -4 0 -5
-7 -9 -16 -9 -8 0 -12 4 -9 10 3 6 -1 7 -9 4 -9 -3 -13 -11 -9 -17 4 -6 0 -8
-10 -4 -8 3 -21 -1 -27 -9 -7 -8 -28 -14 -46 -14 -36 0 -42 -8 -22 -28 19 -19
-12 -15 -34 5 -17 15 -18 15 -18 -10 0 -15 3 -26 8 -26 22 4 32 -3 32 -22 0
-11 4 -18 9 -15 5 4 7 -2 4 -13 -3 -10 0 -22 6 -25 7 -5 8 -1 4 10 -5 13 -2
15 14 10 24 -8 55 2 48 15 -3 4 -12 6 -19 3 -7 -3 -16 2 -20 11 -3 9 -2 13 4
10 5 -3 18 -1 29 5 13 7 22 7 26 0 3 -5 19 -10 35 -10 23 0 28 -3 23 -17 -5
-12 -3 -14 8 -7 8 5 34 9 59 10 25 1 45 3 45 4 0 1 13 4 30 6 49 8 44 16 -7
13 -56 -5 -64 7 -13 17 35 6 58 23 33 25 -7 0 -4 4 7 8 11 5 20 12 20 18 0 5
8 18 18 27 16 17 19 17 36 2 20 -19 56 -22 45 -4 -5 8 -2 9 9 5 10 -4 17 -1
17 6 0 8 4 6 10 -3 7 -11 10 -11 10 -2 0 7 6 10 13 7 6 -4 4 0 -6 8 -18 15
-18 16 5 20 22 4 22 4 1 6 -12 0 -23 8 -25 17 -2 9 -6 12 -11 8z m-100 -40
c-3 -3 -12 -4 -19 -1 -8 3 -5 6 6 6 11 1 17 -2 13 -5z m66 -1 c-7 -2 -19 -2
-25 0 -7 3 -2 5 12 5 14 0 19 -2 13 -5z"/>
<path d="M6706 293 c-13 -13 -5 -33 14 -33 11 0 20 3 20 6 0 11 -28 33 -34 27z"/>
<path d="M7247 294 c-7 -12 -80 -25 -161 -28 -29 -1 -51 -7 -54 -14 -2 -6 -11
-12 -20 -11 -11 0 -12 2 -4 6 6 2 12 9 12 15 0 6 -9 3 -20 -7 -11 -10 -28 -15
-39 -12 -11 3 -21 1 -23 -3 -2 -4 -14 -10 -28 -14 -19 -6 -21 -5 -10 3 8 6 10
11 4 11 -6 0 -19 -9 -29 -20 -12 -13 -31 -20 -56 -20 -31 0 -37 -3 -32 -16 5
-13 7 -13 14 -2 7 10 9 10 9 0 0 -18 -29 -27 -43 -13 -15 15 -27 14 -27 -4 0
-8 11 -17 25 -21 14 -3 25 -12 25 -20 0 -8 5 -14 11 -14 8 0 8 -4 1 -13 -9
-10 -3 -13 25 -12 21 0 38 6 41 14 3 9 -1 11 -17 6 -29 -9 -26 7 3 21 14 7 30
8 38 3 7 -5 23 -9 36 -9 12 0 22 -4 22 -8 0 -4 25 -8 55 -8 30 0 55 3 55 7 0
4 6 7 13 6 40 -1 45 7 7 12 l-45 7 33 9 c17 6 32 15 33 20 0 6 7 14 15 18 8 4
14 15 14 22 0 8 6 15 14 15 8 0 17 6 20 13 3 9 9 7 19 -5 14 -18 53 -26 43 -9
-3 5 3 11 14 14 11 3 23 1 26 -4 3 -5 10 -7 15 -3 6 4 6 11 -1 19 -8 10 -7 14
7 18 15 4 14 5 -4 6 -12 0 -23 9 -25 19 -2 11 -6 13 -11 6z m-97 -38 c0 -3 -4
-8 -10 -11 -5 -3 -10 -1 -10 4 0 6 5 11 10 11 6 0 10 -2 10 -4z m70 -6 c0 -5
-7 -7 -15 -4 -8 4 -15 8 -15 10 0 2 7 4 15 4 8 0 15 -4 15 -10z m-388 -92 c-7
-7 -12 -8 -12 -2 0 14 12 26 19 19 2 -3 -1 -11 -7 -17z"/>
<path d="M10580 295 c0 -6 -15 -12 -32 -13 -18 -2 -49 -7 -68 -12 -19 -5 -52
-8 -73 -7 -24 0 -42 -4 -47 -13 -8 -12 -13 -13 -30 -2 -23 14 -42 16 -20 2 13
-9 13 -10 0 -10 -8 0 -26 -3 -39 -7 -16 -4 -22 -2 -18 4 11 18 -30 3 -49 -18
-11 -13 -31 -19 -58 -19 -38 -1 -40 -2 -22 -15 17 -13 18 -15 2 -21 -9 -3 -23
-1 -31 6 -12 10 -15 10 -15 -3 0 -9 9 -19 20 -22 11 -3 20 -13 20 -21 0 -8 4
-14 10 -14 5 0 7 -6 4 -13 -3 -9 5 -13 27 -12 18 0 34 6 37 13 2 8 -2 12 -13
10 -10 -2 -20 3 -23 11 -3 8 0 11 6 7 7 -4 20 -2 31 4 13 7 22 7 26 0 3 -5 17
-10 31 -10 13 0 24 -4 24 -8 0 -5 26 -8 58 -6 31 1 57 3 57 4 0 1 13 4 30 6
47 8 43 14 -11 14 -35 0 -45 3 -34 10 8 5 26 10 39 10 16 0 21 4 17 15 -3 9 0
15 9 15 8 0 15 9 15 20 0 11 6 20 14 20 8 0 16 6 19 13 3 9 9 7 24 -5 22 -20
43 -23 43 -7 0 7 11 9 26 6 21 -4 25 -1 21 14 -4 13 0 19 11 20 14 0 14 2 2 6
-8 4 -20 13 -27 22 -7 9 -13 11 -13 6z m-100 -39 c0 -3 -4 -8 -10 -11 -5 -3
-10 -1 -10 4 0 6 5 11 10 11 6 0 10 -2 10 -4z m75 -6 c-3 -5 -12 -7 -20 -3
-21 7 -19 13 6 13 11 0 18 -4 14 -10z m-393 -92 c-8 -8 -9 -4 -5 13 4 13 8 18
11 10 2 -7 -1 -18 -6 -23z"/>
<path d="M335 260 c-3 -5 -1 -10 4 -10 6 0 11 5 11 10 0 6 -2 10 -4 10 -3 0
-8 -4 -11 -10z"/>
<path d="M10335 260 c-3 -5 -1 -10 4 -10 6 0 11 5 11 10 0 6 -2 10 -4 10 -3 0
-8 -4 -11 -10z"/>
<path d="M5 198 c-7 -19 -1 -88 8 -88 4 0 7 5 7 10 0 6 6 10 14 10 10 0 12 7
8 22 -3 14 -1 19 6 14 8 -5 10 -1 5 10 -5 13 -3 15 7 9 9 -6 11 -4 5 4 -5 9
-13 7 -31 -10 -23 -22 -35 -14 -13 8 8 8 8 13 0 18 -6 3 -13 0 -16 -7z"/>
<path d="M3317 188 c-3 -12 -2 -29 3 -37 5 -9 10 -12 10 -8 0 4 9 3 20 -3 18
-10 21 -7 26 19 4 17 10 28 15 25 5 -3 9 0 9 5 0 17 -14 13 -33 -10 -10 -11
-21 -18 -24 -15 -3 3 -1 12 5 19 13 15 6 27 -14 27 -6 0 -14 -10 -17 -22z"/>
<path d="M9984 195 c-9 -22 1 -50 15 -47 9 2 12 -4 8 -18 -3 -11 -1 -20 4 -20
5 0 9 5 9 10 0 6 6 10 14 10 10 0 12 7 8 22 -3 14 -1 19 6 14 8 -5 10 -1 5 10
-5 13 -3 15 7 9 9 -6 11 -4 5 4 -5 9 -13 7 -31 -10 -24 -22 -35 -14 -12 9 7 7
10 12 8 13 -3 0 -13 2 -23 4 -10 2 -21 -3 -23 -10z"/>
<path d="M3910 186 c0 -2 7 -9 15 -16 9 -7 15 -8 15 -2 0 5 -7 12 -15 16 -8 3
-15 4 -15 2z"/>
<path d="M590 170 c0 -5 5 -10 10 -10 6 0 10 5 10 10 0 6 -4 10 -10 10 -5 0
-10 -4 -10 -10z"/>
<path d="M10590 170 c0 -5 5 -10 10 -10 6 0 10 5 10 10 0 6 -4 10 -10 10 -5 0
-10 -4 -10 -10z"/>
<path d="M1880 130 c6 -12 10 -23 8 -26 -2 -2 -28 6 -57 17 -30 11 -56 17 -59
14 -3 -3 1 -5 8 -5 10 0 9 -5 -3 -18 -10 -10 -15 -21 -12 -24 3 -2 -6 -15 -20
-28 -14 -13 -25 -29 -25 -36 0 -7 -8 -15 -17 -17 -10 -3 32 -5 92 -6 62 0 104
3 97 8 -9 5 -11 17 -6 35 5 21 11 25 26 20 14 -4 18 -2 14 5 -4 6 -1 11 7 11
10 0 13 7 10 20 -6 23 -20 35 -51 45 -22 6 -23 5 -12 -15z"/>
<path d="M3867 129 c7 -7 15 -10 18 -7 3 3 -2 9 -12 12 -14 6 -15 5 -6 -5z"/>
<path d="M90 115 c0 -8 4 -15 10 -15 5 0 7 7 4 15 -4 8 -8 15 -10 15 -2 0 -4
-7 -4 -15z"/>
<path d="M475 118 c-4 -10 -15 -18 -24 -18 -10 0 -26 -6 -37 -14 -14 -11 -16
-18 -7 -26 8 -9 13 -7 18 10 6 20 8 20 30 6 20 -13 24 -13 29 -1 3 8 11 12 19
9 8 -3 14 1 14 10 0 8 -6 12 -13 9 -7 -2 -14 4 -17 14 -4 17 -4 17 -12 1z"/>
<path d="M3300 121 c0 -5 5 -13 10 -16 6 -3 10 -2 10 4 0 5 -4 13 -10 16 -5 3
-10 2 -10 -4z"/>
<path d="M3804 116 c-3 -9 -12 -16 -20 -16 -8 0 -14 -4 -14 -10 0 -5 7 -10 15
-10 8 0 15 -4 15 -10 0 -5 5 -10 10 -10 6 0 10 7 10 15 0 9 6 12 18 8 15 -6
15 -3 -3 18 -11 13 -21 26 -22 28 -1 2 -5 -4 -9 -13z"/>
<path d="M6761 114 c0 -11 3 -14 6 -6 3 7 2 16 -1 19 -3 4 -6 -2 -5 -13z"/>
<path d="M7134 117 c-3 -9 -19 -19 -35 -22 -28 -6 -39 -28 -19 -40 6 -3 10 1
10 9 0 19 31 21 48 4 9 -9 12 -8 12 5 0 10 5 14 14 11 7 -3 16 2 20 11 4 10 2
14 -6 9 -6 -4 -17 1 -24 11 -12 16 -14 16 -20 2z"/>
<path d="M10090 115 c0 -8 4 -15 10 -15 5 0 7 7 4 15 -4 8 -8 15 -10 15 -2 0
-4 -7 -4 -15z"/>
<path d="M10475 118 c-4 -10 -15 -18 -24 -18 -10 0 -26 -6 -37 -14 -14 -11
-16 -18 -7 -26 8 -9 13 -7 18 10 6 20 8 20 30 6 20 -13 24 -13 29 -1 3 8 11
12 19 9 8 -3 14 1 14 10 0 8 -6 12 -13 9 -7 -2 -14 4 -17 14 -4 17 -4 17 -12
1z"/>
<path d="M65 89 c-9 -14 -2 -20 14 -10 8 6 9 11 3 15 -6 3 -14 1 -17 -5z"/>
<path d="M3400 90 c0 -5 5 -10 11 -10 5 0 7 5 4 10 -3 6 -8 10 -11 10 -2 0 -4
-4 -4 -10z"/>
<path d="M10065 89 c-9 -14 -2 -20 14 -10 8 6 9 11 3 15 -6 3 -14 1 -17 -5z"/>
<path d="M26 66 c-10 -16 -13 -25 -7 -22 6 4 11 3 11 -3 0 -5 -4 -13 -10 -16
-18 -11 -10 -25 15 -25 17 0 25 6 25 17 0 9 3 14 6 10 3 -3 17 5 31 19 14 14
22 28 19 31 -4 4 -12 1 -18 -5 -18 -18 -46 -15 -50 5 -2 13 -7 11 -22 -11z"/>
<path d="M3362 70 c-9 -14 -8 -20 1 -24 9 -5 9 -7 0 -12 -23 -10 -14 -34 12
-34 19 0 23 4 18 17 -4 10 -2 14 4 10 12 -8 59 40 50 50 -4 4 -13 1 -19 -5
-14 -14 -52 -16 -43 -3 3 5 2 12 -3 15 -4 2 -13 -4 -20 -14z"/>
<path d="M3737 84 c-3 -3 -3 -12 0 -20 3 -9 -2 -14 -16 -14 -15 0 -19 4 -14
18 6 15 5 15 -10 3 -9 -7 -23 -11 -32 -8 -8 4 -17 2 -20 -3 -4 -6 1 -10 10
-10 12 0 14 -7 9 -27 -4 -20 -3 -24 4 -14 5 7 15 10 21 7 6 -4 11 0 11 8 0 18
16 21 25 6 4 -6 11 -8 16 -4 5 3 7 9 4 14 -3 5 -1 11 5 15 5 3 10 13 10 21 0
14 -12 19 -23 8z"/>
<path d="M6700 75 c0 -8 -6 -15 -12 -15 -9 0 -8 -4 2 -11 11 -8 12 -12 3 -16
-24 -9 -14 -33 13 -33 19 0 25 4 20 15 -3 9 0 15 8 15 19 0 59 37 47 44 -5 4
-12 2 -16 -4 -10 -16 -45 -12 -45 5 0 8 -4 15 -10 15 -5 0 -10 -7 -10 -15z"/>
<path d="M6738 83 c7 -3 16 -2 19 1 4 3 -2 6 -13 5 -11 0 -14 -3 -6 -6z"/>
<path d="M10026 66 c-10 -16 -13 -25 -7 -22 6 4 11 3 11 -3 0 -5 -4 -13 -10
-16 -18 -11 -10 -25 15 -25 17 0 25 6 25 17 0 9 3 14 6 10 3 -3 17 5 31 19 14
14 22 28 19 31 -4 4 -12 1 -18 -5 -18 -18 -46 -15 -50 5 -2 13 -7 11 -22 -11z"/>
<path d="M360 69 c0 -7 -10 -9 -25 -7 -14 3 -28 1 -31 -3 -3 -5 3 -9 14 -9 15
0 19 -6 16 -28 -2 -15 -1 -19 2 -9 5 14 9 16 20 6 11 -9 14 -8 14 5 0 18 15
22 25 6 4 -6 10 -8 15 -5 5 3 12 0 15 -6 4 -5 13 -8 21 -5 8 3 14 1 14 -3 0
-5 9 -7 20 -4 32 8 23 23 -14 23 -43 0 -94 21 -89 38 3 6 0 12 -6 12 -6 0 -11
-5 -11 -11z"/>
<path d="M3303 68 c-12 -14 -16 -33 -14 -58 1 -13 2 -13 11 0 6 10 10 11 10 3
0 -7 5 -13 10 -13 12 0 13 50 1 68 -6 11 -10 11 -18 0z m9 -30 c-7 -7 -12 -8
-12 -2 0 14 12 26 19 19 2 -3 -1 -11 -7 -17z"/>
<path d="M6634 66 c-22 -24 -24 -46 -4 -56 29 -16 37 -12 35 14 -4 37 -18 56
-31 42z m16 -16 c0 -5 -5 -10 -11 -10 -5 0 -7 5 -4 10 3 6 8 10 11 10 2 0 4
-4 4 -10z"/>
<path d="M7031 71 c-1 -9 -10 -12 -26 -9 -14 3 -28 1 -31 -3 -3 -5 2 -9 12 -9
12 0 15 -6 12 -25 -3 -14 -1 -25 3 -25 5 0 9 7 9 16 0 14 3 14 15 4 12 -10 15
-9 15 4 0 10 5 14 11 11 6 -4 8 -13 5 -21 -3 -8 -2 -14 3 -14 5 0 11 9 14 21
4 15 0 23 -13 26 -10 3 -21 12 -23 22 -3 10 -5 11 -6 2z"/>
<path d="M10360 69 c0 -7 -10 -9 -25 -7 -14 3 -28 1 -31 -3 -3 -5 3 -9 14 -9
15 0 19 -6 16 -28 -2 -15 -1 -19 2 -9 5 14 9 16 20 6 11 -9 14 -8 14 5 0 18
15 22 25 6 4 -6 10 -8 15 -5 5 3 12 0 15 -6 4 -5 13 -8 21 -5 8 3 14 1 14 -3
0 -5 9 -7 20 -4 32 8 23 23 -14 23 -43 0 -94 21 -89 38 3 6 0 12 -6 12 -6 0
-11 -5 -11 -11z"/>
<path d="M440 60 c0 -5 5 -10 10 -10 6 0 10 5 10 10 0 6 -4 10 -10 10 -5 0
-10 -4 -10 -10z"/>
<path d="M3770 60 c0 -5 5 -10 10 -10 6 0 10 5 10 10 0 6 -4 10 -10 10 -5 0
-10 -4 -10 -10z"/>
<path d="M6800 50 c0 -26 6 -26 13 0 3 11 1 20 -4 20 -5 0 -9 -9 -9 -20z"/>
<path d="M7100 60 c0 -5 5 -10 10 -10 6 0 10 5 10 10 0 6 -4 10 -10 10 -5 0
-10 -4 -10 -10z"/>
<path d="M9957 49 c-17 -23 -7 -44 23 -46 11 -1 16 7 15 29 0 38 -18 46 -38
17z"/>
<path d="M10440 60 c0 -5 5 -10 10 -10 6 0 10 5 10 10 0 6 -4 10 -10 10 -5 0
-10 -4 -10 -10z"/>
<path d="M490 50 c0 -13 27 -13 35 0 3 6 -3 10 -14 10 -12 0 -21 -4 -21 -10z"/>
<path d="M3824 45 c-4 -9 -19 -15 -35 -15 -16 0 -29 -5 -29 -11 0 -6 7 -9 15
-6 8 4 17 2 20 -3 8 -12 35 -1 35 15 0 6 10 17 23 23 l22 11 -23 0 c-12 1 -25
-6 -28 -14z"/>
<path d="M7154 45 c-4 -9 -19 -15 -35 -15 -16 0 -29 -5 -29 -11 0 -6 7 -9 15
-6 8 4 17 2 20 -2 8 -15 47 0 41 15 -3 8 1 14 9 14 7 0 17 5 20 10 3 6 -3 10
-15 10 -11 0 -23 -7 -26 -15z"/>
<path d="M10490 50 c0 -13 27 -13 35 0 3 6 -3 10 -14 10 -12 0 -21 -4 -21 -10z"/>
<path d="M243 36 c4 -9 -1 -17 -11 -19 -10 -3 -5 -5 11 -6 17 -1 26 3 22 9 -3
6 -1 10 5 10 6 0 8 4 5 10 -10 16 -38 12 -32 -4z"/>
<path d="M3546 41 c-4 -5 3 -7 14 -4 11 3 20 1 20 -5 0 -6 -8 -13 -17 -15 -11
-3 -7 -5 10 -6 17 -1 26 3 22 9 -3 6 -1 10 5 10 6 0 8 4 5 10 -8 12 -52 13
-59 1z"/>
<path d="M6913 36 c4 -10 -2 -16 -16 -19 -19 -4 -18 -4 4 -6 16 0 29 5 33 15
9 22 8 24 -10 24 -10 0 -14 -6 -11 -14z"/>
<path d="M10243 36 c4 -9 -1 -17 -11 -19 -10 -3 -5 -5 11 -6 17 -1 26 3 22 9
-3 6 -1 10 5 10 6 0 8 4 5 10 -10 16 -38 12 -32 -4z"/>
<path d="M152 18 c3 -7 15 -14 29 -15 14 -1 17 0 7 3 -10 3 -18 10 -18 15 0 5
-5 9 -11 9 -6 0 -9 -6 -7 -12z"/>
<path d="M3491 14 c0 -11 3 -14 6 -6 3 7 2 16 -1 19 -3 4 -6 -2 -5 -13z"/>
<path d="M6817 17 c-3 -8 4 -14 21 -15 14 -1 24 -1 21 1 -2 1 -11 8 -20 15
-13 10 -18 10 -22 -1z"/>
<path d="M10152 18 c3 -7 15 -14 29 -15 14 -1 17 0 7 3 -10 3 -18 10 -18 15 0
5 -5 9 -11 9 -6 0 -9 -6 -7 -12z"/>
</g>
</svg>
